<svg width="24" height="24" viewBox="0 0 24 24" fill="none" xmlns="http://www.w3.org/2000/svg">
<g clip-path="url(#clip0_739_38)">
<path d="M6 7H2C1.46667 7 1 6.53333 1 6C1 5.46667 1.46667 5 2 5H6C6.53333 5 7 5.46667 7 6C7 6.53333 6.53333 7 6 7Z" fill="#F7F7F8"/>
<path d="M6 15H2C1.46667 15 1 14.5333 1 14C1 13.4667 1.46667 13 2 13H6C6.53333 13 7 13.4667 7 14C7 14.5333 6.53333 15 6 15Z" fill="#F7F7F8"/>
<path d="M6 19H2C1.46667 19 1 18.5333 1 18C1 17.4667 1.46667 17 2 17H6C6.53333 17 7 17.4667 7 18C7 18.5333 6.53333 19 6 19Z" fill="#F7F7F8"/>
<path d="M14 11H10C9.46667 11 9 10.5333 9 10C9 9.46667 9.46667 9 10 9H14C14.5333 9 15 9.46667 15 10C15 10.5333 14.5333 11 14 11Z" fill="#F7F7F8"/>
<path d="M14 15H10C9.46667 15 9 14.5333 9 14C9 13.4667 9.46667 13 10 13H14C14.5333 13 15 13.4667 15 14C15 14.5333 14.5333 15 14 15Z" fill="#F7F7F8"/>
<path d="M22 7H18C17.4667 7 17 6.53333 17 6C17 5.46667 17.4667 5 18 5H22C22.5333 5 23 5.46667 23 6C23 6.53333 22.5333 7 22 7Z" fill="#F7F7F8"/>
<path d="M22 11H18C17.4667 11 17 10.5333 17 10C17 9.46667 17.4667 9 18 9H22C22.5333 9 23 9.46667 23 10C23 10.5333 22.5333 11 22 11Z" fill="#F7F7F8"/>
<path d="M22 19H18C17.4667 19 17 18.5333 17 18C17 17.4667 17.4667 17 18 17H22C22.5333 17 23 17.4667 23 18C23 18.5333 22.5333 19 22 19Z" fill="#F7F7F8"/>
</g>
<defs>
<clipPath id="clip0_739_38">
<rect width="22" height="14" fill="white" transform="translate(1 5)"/>
</clipPath>
</defs>
</svg>
