<svg width="24" height="24" viewBox="0 0 24 24" fill="none" xmlns="http://www.w3.org/2000/svg">
<path d="M20 2H4C2.9 2 2 2.9 2 4V22L6 18H20C21.1 18 22 17.1 22 16V4C22 2.9 21.1 2 20 2ZM20 16H5.17L4 17.17V4H20V16Z" fill="#0D2880"/>
<path fill-rule="evenodd" clip-rule="evenodd" d="M11.55 11.712H13.2161L13.2188 11.506C13.2221 11.265 13.256 11.0602 13.3163 10.8885C13.3711 10.7324 13.4801 10.5759 13.6569 10.4206L13.6606 10.4172C13.8888 10.2071 14.1016 9.99828 14.2989 9.79081C14.506 9.57304 14.674 9.33721 14.8015 9.08329L14.8021 9.08222C14.9356 8.81249 15 8.51229 15 8.18589C15 7.73873 14.9036 7.3435 14.7003 7.00945C14.5004 6.67512 14.2086 6.42327 13.8335 6.25399C13.4627 6.0817 13.0253 6 12.5284 6C12.074 6 11.6568 6.07917 11.2804 6.24154C10.8982 6.40298 10.5908 6.65095 10.3632 6.98379C10.1312 7.31982 10.0161 7.73153 10.005 8.2066L10 8.4201H11.7998L11.8063 8.218C11.8124 8.02856 11.8534 7.89557 11.913 7.80425L11.9143 7.80223C11.98 7.69911 12.0633 7.62707 12.1661 7.58033C12.2795 7.52876 12.3995 7.50285 12.5284 7.50285C12.6953 7.50285 12.8159 7.53514 12.9026 7.58573L12.9085 7.58892C12.9988 7.6379 13.0667 7.70914 13.1143 7.80995L13.1162 7.81369C13.1673 7.91654 13.1985 8.05624 13.1985 8.24195C13.1985 8.39737 13.168 8.5299 13.1115 8.64379C13.0494 8.76531 12.962 8.88607 12.8466 9.00545C12.7254 9.13094 12.5866 9.26553 12.4299 9.40928L12.4288 9.41031C12.219 9.60554 12.0479 9.80149 11.9189 9.99865C11.7868 10.1971 11.6928 10.4187 11.6357 10.6614L11.635 10.6644C11.5827 10.9028 11.556 11.1826 11.5524 11.501L11.55 11.712ZM14.3904 6.93292C14.4366 6.9905 14.4788 7.05145 14.5173 7.11578C14.6973 7.41133 14.7873 7.76804 14.7873 8.18589C14.7873 8.48485 14.7285 8.75323 14.6107 8.99103C14.493 9.22544 14.3373 9.44456 14.1434 9.64839C13.9495 9.85222 13.7401 10.0578 13.5151 10.265C13.3177 10.4382 13.1845 10.6234 13.1152 10.8204C13.046 11.0175 13.0096 11.2451 13.0062 11.5033H11.7651C11.7651 11.5032 11.7651 11.5032 11.7651 11.5032H13.0061C13.0096 11.245 13.0459 11.0174 13.1152 10.8204C13.1844 10.6233 13.3177 10.4382 13.515 10.2649C13.74 10.0577 13.9495 9.85217 14.1433 9.64834C14.3372 9.44451 14.493 9.22539 14.6107 8.99098C14.7284 8.75318 14.7873 8.4848 14.7873 8.18584C14.7873 7.76799 14.6972 7.41128 14.5172 7.11573C14.4788 7.05141 14.4365 6.99048 14.3904 6.93292ZM10.2176 8.21132C10.2176 8.21134 10.2176 8.21136 10.2176 8.21137H11.5937C11.6006 7.99735 11.6474 7.82409 11.7339 7.6916C11.8205 7.55571 11.9347 7.4555 12.0767 7.39095C12.2186 7.3264 12.3692 7.29413 12.5284 7.29413C12.7223 7.29413 12.8833 7.3315 13.0114 7.40624C13.0823 7.44469 13.1436 7.49301 13.1954 7.5512C13.1436 7.49299 13.0822 7.44465 13.0113 7.40619C12.8832 7.33145 12.7222 7.29408 12.5284 7.29408C12.3691 7.29408 12.2185 7.32635 12.0766 7.3909C11.9347 7.45545 11.8204 7.55566 11.7339 7.69155C11.6473 7.82404 11.6006 7.9973 11.5937 8.21132H10.2176ZM12.4142 12.1659C12.1319 12.1659 11.884 12.2476 11.6944 12.4291L11.6926 12.4309C11.5116 12.6085 11.4226 12.8326 11.4226 13.0881C11.4226 13.3389 11.5131 13.5589 11.6926 13.735L11.6944 13.7368C11.884 13.9183 12.1319 14 12.4142 14C12.6958 14 12.943 13.9186 13.1297 13.7359C13.3126 13.5604 13.4058 13.3401 13.4058 13.0881C13.4058 12.8314 13.3141 12.607 13.1297 12.43C12.943 12.2473 12.6958 12.1659 12.4142 12.1659ZM13.1931 13.0881C13.1931 13.2851 13.1221 13.4516 12.9802 13.5874C12.8417 13.7233 12.6531 13.7913 12.4142 13.7913C12.1753 13.7913 11.9849 13.7233 11.843 13.5874C11.8305 13.5752 11.8186 13.5628 11.8073 13.5501C11.8186 13.5627 11.8305 13.5752 11.8429 13.5874C11.9849 13.7233 12.1753 13.7912 12.4141 13.7912C12.653 13.7912 12.8417 13.7233 12.9802 13.5874C13.1221 13.4515 13.1931 13.285 13.1931 13.088C13.1931 12.9041 13.1353 12.7478 13.0197 12.6192C13.1353 12.7478 13.1931 12.9041 13.1931 13.0881Z" fill="#0D2880"/>
</svg>
