<svg width="24" height="24" viewBox="0 0 24 24" fill="none" xmlns="http://www.w3.org/2000/svg">
<path fill-rule="evenodd" clip-rule="evenodd" d="M8.7712 1.02135C9.61964 0.945946 10.4739 1.0709 11.2653 1.38614C12.0566 1.70138 12.7628 2.1981 13.3269 2.83626C13.3336 2.84387 13.3404 2.85149 13.347 2.85913C14.33 2.59065 15.3667 2.55591 16.3729 2.76349C17.6759 3.03229 18.865 3.69444 19.7797 4.66053C20.6944 5.62662 21.2906 6.85012 21.4879 8.16583C21.6851 9.48155 21.4738 10.8261 20.8826 12.0179C20.2914 13.2098 19.3487 14.1915 18.1818 14.8305C17.0149 15.4696 15.6801 15.7351 14.3574 15.5914C13.0348 15.4477 11.7882 14.9015 10.7858 14.0268C10.6869 13.9405 10.5909 13.8514 10.4978 13.7597C10.0692 14.1793 9.56621 14.5207 9.01098 14.7646C8.07917 15.1739 7.04464 15.2891 6.0456 15.0949C5.04656 14.9006 4.1306 14.4061 3.42009 13.6774C2.70958 12.9487 2.23836 12.0205 2.06939 11.0169C1.90042 10.0133 2.04176 8.98199 2.4745 8.06082C2.78983 7.38959 3.24896 6.80012 3.8155 6.33207C3.8176 6.2246 3.82289 6.11706 3.83139 6.00957C3.89852 5.16043 4.16418 4.33893 4.60696 3.61127C5.04974 2.88361 5.65726 2.27013 6.38057 1.82027C7.10388 1.37042 7.92275 1.09676 8.7712 1.02135ZM9.29062 12.1241C9.05723 11.6745 8.87593 11.1967 8.7522 10.6997L10.693 10.2165C10.9155 11.1103 11.4069 11.9143 12.1008 12.5199C12.7948 13.1255 13.6579 13.5036 14.5735 13.6031C15.4892 13.7026 16.4133 13.5187 17.2212 13.0763C18.029 12.6339 18.6817 11.9543 19.091 11.1292C19.5003 10.304 19.6465 9.37321 19.51 8.46233C19.3734 7.55145 18.9606 6.70441 18.3274 6.03558C17.6942 5.36675 16.8709 4.90834 15.9689 4.72225C15.449 4.615 14.9173 4.60118 14.3982 4.67834C14.4411 4.80394 14.4795 4.93131 14.5133 5.0602L12.5786 5.56697C12.4421 5.04602 12.1852 4.56441 11.8285 4.16094C11.4718 3.75747 11.0254 3.44343 10.5251 3.24413C10.0248 3.04482 9.48467 2.96583 8.94825 3.0135C8.41184 3.06117 7.89413 3.23419 7.43683 3.5186C6.97954 3.80301 6.59544 4.19087 6.3155 4.65092C6.03556 5.11097 5.86761 5.63034 5.82516 6.16719C5.78272 6.70404 5.86698 7.24336 6.07116 7.74168L4.64771 8.3249C4.50534 8.50477 4.3833 8.70133 4.2847 8.91122C4.02506 9.46392 3.94026 10.0827 4.04164 10.6849C4.14302 11.287 4.42575 11.8439 4.85205 12.2812C5.27836 12.7184 5.82794 13.0151 6.42736 13.1316C7.02678 13.2482 7.6475 13.1791 8.20659 12.9335C8.62665 12.7489 8.99689 12.4714 9.29062 12.1241Z" fill="#282928"/>
<path fill-rule="evenodd" clip-rule="evenodd" d="M7.81784 17.7395C8.24308 16.0721 8.38682 14.2865 8.38682 13.1669H10.3868C10.3868 14.4158 10.2306 16.3722 9.7558 18.2338C9.57063 18.9599 9.32521 19.72 8.996 20.4327C10.9476 20.1461 13.418 20.1976 15.793 21.2531L14.9807 23.0807C11.7276 21.6349 8.13843 22.4828 6.79296 23.0807L5.85283 21.3214C6.70204 20.7851 7.37574 19.473 7.81784 17.7395Z" fill="#282928"/>
<path fill-rule="evenodd" clip-rule="evenodd" d="M14.7678 18.2924C14.4838 16.8587 14.3868 15.3057 14.3868 14.1669H12.3868C12.3868 15.3966 12.4899 17.0856 12.8059 18.681C13.1102 20.2173 13.6547 21.9035 14.6991 22.8929L16.0746 21.441C15.519 20.9146 15.0634 19.785 14.7678 18.2924Z" fill="#282928"/>
</svg>
