<svg width="24" height="22" viewBox="0 0 24 22" fill="none" xmlns="http://www.w3.org/2000/svg">
<path d="M5.76 4.29L3.96 2.5L2.55 3.91L4.34 5.7L5.76 4.29ZM0 9.95H3V11.95H0V9.95ZM11 0H13V2.95H11V0ZM20.04 2.495L21.448 3.902L19.658 5.692L18.251 4.284L20.04 2.495ZM21 9.95H24V11.95H21V9.95Z" fill="#282928"/>
<path fill-rule="evenodd" clip-rule="evenodd" d="M17 11.95C17 11.2934 16.8707 10.6432 16.6194 10.0366C16.3681 9.42998 15.9998 8.87878 15.5355 8.41449C15.0712 7.9502 14.52 7.5819 13.9134 7.33063C13.3068 7.07935 12.6566 6.95002 12 6.95002C11.3434 6.95002 10.6932 7.07935 10.0866 7.33063C9.47995 7.5819 8.92876 7.9502 8.46447 8.41449C8.00018 8.87878 7.63188 9.42998 7.3806 10.0366C7.12933 10.6432 7 11.2934 7 11.95L5 11.95C5 11.0308 5.18106 10.1205 5.53284 9.27124C5.88463 8.42196 6.40024 7.65029 7.05025 7.00028C7.70026 6.35027 8.47194 5.83465 9.32122 5.48287C10.1705 5.13108 11.0807 4.95002 12 4.95002C12.9193 4.95002 13.8295 5.13108 14.6788 5.48287C15.5281 5.83465 16.2997 6.35027 16.9497 7.00028C17.5998 7.65029 18.1154 8.42196 18.4672 9.27124C18.8189 10.1205 19 11.0308 19 11.95H17Z" fill="#282928"/>
<path d="M15.3145 20.0909L17.0706 13.95H19.0381L16.3335 21.8416H15.0489L15.3145 20.0909ZM13.7156 13.95L15.4663 20.0909L15.7427 21.8416H14.4419L11.7535 13.95H13.7156Z" fill="#282928"/>
<path d="M9.36856 13.95H11.1355V19.1316C11.1355 19.7459 11.0054 20.2626 10.7453 20.6817C10.4887 21.1009 10.131 21.4171 9.67209 21.6302C9.21319 21.8434 8.68202 21.95 8.07859 21.95C7.47154 21.95 6.93677 21.8434 6.47425 21.6302C6.01536 21.4171 5.65402 21.1009 5.39024 20.6817C5.13008 20.2626 5 19.7459 5 19.1316V13.95H6.77236V19.1316C6.77236 19.4713 6.82295 19.7495 6.92412 19.9663C7.02891 20.1795 7.17886 20.3367 7.37398 20.4378C7.56911 20.5354 7.80397 20.5842 8.07859 20.5842C8.35321 20.5842 8.58627 20.5354 8.77778 20.4378C8.9729 20.3367 9.11924 20.1795 9.2168 19.9663C9.31798 19.7495 9.36856 19.4713 9.36856 19.1316V13.95Z" fill="#282928"/>
</svg>
