<svg xmlns="http://www.w3.org/2000/svg" width="144" height="23" viewBox="0 0 144 23" fill="none">
  <path d="M1.20945 1.25234C-0.393119 2.92206 -0.413151 19.8071 1.20945 21.4977C2.81202 23.1674 19.018 23.1883 20.6406 21.4977C22.2632 19.8071 22.2432 2.92206 20.6406 1.25234C19.0781 -0.396509 2.83205 -0.438252 1.20945 1.25234ZM18.2368 13.8587H13.3289V18.9931H8.48111V13.8587H3.55321V8.80782H8.48111V3.67343H13.3289V8.80782H18.2368V13.8587Z" fill="#4DA32F"/>
  <path d="M13.3265 3.67188H8.47868V8.80626H3.55078V13.8572H8.47868V18.9916H13.3265V13.8572H18.2343V8.80626H13.3265V3.67188Z" fill="white"/>
  <path d="M143.238 17.0548H141.134C140.513 17.0548 140.073 16.9922 139.812 16.7626C139.452 16.4495 139.492 15.719 139.452 14.592V2.02734H136.527C135.505 3.92665 133.863 4.21885 131.82 4.32321V6.41036C132.941 6.49384 134.163 6.63994 134.604 6.86953C134.604 6.86953 135.105 6.95302 135.165 7.87136C135.425 11.8578 135.385 12.8805 135.265 15.0303C135.225 15.886 135.105 16.5539 134.824 16.7835C134.484 17.0757 133.983 17.0966 133.482 17.0966H131.539V20.1229H143.238V17.0548Z" fill="#4DA32F"/>
  <path d="M53.3932 5.80628H50.3282V11.0659H53.3932C54.9557 11.0659 56.3779 10.6067 56.3779 8.4987C56.3779 6.51591 54.9557 5.80628 53.3932 5.80628ZM54.4749 14.3218H50.3282V20.1032H46.2617V2.80078H54.4749C57.4997 2.80078 59.9437 5.26362 59.9437 8.41521C59.9437 11.5668 57.8603 14.3218 54.4749 14.3218Z" fill="#1E3866"/>
  <path d="M70.6394 16.7185C67.6546 16.7185 65.4911 14.5061 65.4911 11.4589C65.4911 8.41165 67.6546 6.19927 70.6394 6.19927C73.6442 6.19927 75.8076 8.41165 75.8076 11.4589C75.8076 14.5061 73.6442 16.7185 70.6394 16.7185ZM70.6394 2.60938C65.5913 2.60938 61.7852 6.40799 61.7852 11.4589C61.7852 16.5098 65.5712 20.3084 70.5993 20.3084C76.4487 20.3084 79.5136 15.8628 79.5136 11.4589C79.5136 6.34537 75.7676 2.60938 70.6394 2.60938Z" fill="#1E3866"/>
  <path d="M80.1992 2.81641V6.36456H85.4476V20.098H89.0734V6.36456H94.3018V2.81641H80.1992Z" fill="#1E3866"/>
  <path d="M34.7641 8.87439C35.2849 10.1058 36.6671 13.32 36.6671 13.32H32.9812C32.9812 13.32 34.2632 10.1058 34.7641 8.87439ZM39.6118 20.1032H43.4179L36.006 2.80078H33.5221L26.3906 20.1032H30.1967C30.1967 20.1032 31.2384 17.8491 31.7993 16.4925H37.9492C38.5501 17.8491 39.6118 20.1032 39.6118 20.1032Z" fill="#1E3866"/>
  <path d="M101.212 13.1687H108.143V9.59964H101.212V6.36456H108.363V2.81641H97.5859V20.098H108.564V16.5498H101.212V13.1687Z" fill="#1E3866"/>
  <path d="M118.399 11.0033C119.22 10.0641 125.63 2.80078 125.63 2.80078H120.943C120.943 2.80078 117.237 6.99595 115.614 8.83264V2.82165H111.988V20.1032H115.614V13.3409C117.357 15.0941 122.305 20.1032 122.305 20.1032H127.393C127.393 20.1032 119.28 11.9216 118.399 11.0033Z" fill="#1E3866"/>
</svg>